<?xml version="1.0" encoding="utf-8" ?>
<svg baseProfile="full" height="1024" version="1.1" width="512" xmlns="http://www.w3.org/2000/svg" xmlns:ev="http://www.w3.org/2001/xml-events" xmlns:xlink="http://www.w3.org/1999/xlink"><defs /><polyline fill="none" points="155,749 155,750 158,750 156,750" stroke="#3AAFA9" stroke-width="4" /><polyline fill="none" points="275,739 274,740 273,740 269,744 269,745 268,746 268,747 267,748 267,760 268,761 268,762 269,763 269,764 273,768 275,768 276,769 281,769 282,768 284,768 287,765 288,766 288,768 287,769 287,772 284,775 274,775 272,773 271,773 270,772 269,773 268,773 267,774 267,775 268,776 268,777 270,779 271,779 272,780 274,780 275,781 283,781 284,780 286,780 287,779 288,779 291,776 291,775 292,774 292,773 293,772 293,763 294,762 293,761 294,760 293,759 293,756 294,755 293,754 294,753 294,752 293,751 293,749 294,748 294,742 293,741 293,739 289,739 288,740 287,739 288,740 287,741 286,741 285,740 284,740 283,739" stroke="#3AAFA9" stroke-width="4" /><polyline fill="none" points="237,739 237,740 236,741 235,741 236,741 237,742 237,769 238,770 239,769 242,769 242,754 243,753 243,748 247,744 249,744 250,743 251,744 252,744 254,746 253,747 253,748 253,747 254,746 255,747 255,768 256,769 260,769 261,770 261,744 259,742 259,741 258,741 257,740 256,740 255,739 247,739 246,740 245,740 243,742 242,741 242,740 241,739" stroke="#3AAFA9" stroke-width="4" /><polyline fill="none" points="206,739 205,740 205,762 206,763 206,766 208,768 208,769 210,769 211,770 218,770 220,768 221,768 223,766 224,767 224,769 228,769 229,770 229,769 230,768 230,767 229,766 229,753 230,752 229,751 229,747 230,746 229,745 230,744 229,743 229,739 228,739 227,740 226,739 225,739 224,740 224,758 223,759 223,760 222,761 222,762 220,764 219,764 218,765 214,765 211,762 211,740 210,739" stroke="#3AAFA9" stroke-width="4" /><polyline fill="none" points="154,739 154,740 155,741 156,741 157,742 156,743 156,745 154,747 155,746 157,748 160,748 160,747 163,744 165,744 166,743 167,743 168,744 169,744 171,746 170,747 169,747 169,748 170,747 171,747 172,748 172,750 171,751 167,751 166,752 163,752 162,753 160,753 159,754 158,754 155,757 155,758 154,759 154,764 153,765 154,765 155,766 155,767 157,769 158,769 159,770 167,770 168,769 169,769 172,766 173,767 173,769 175,769 176,770 177,770 178,771 180,769 181,769 181,766 180,765 179,765 178,764 178,763 177,762 177,756 178,755 177,754 178,753 178,752 177,751 178,750 177,749 177,744 176,743 176,742 174,740 173,740 172,739 162,739 161,740 160,740 159,739 160,740 159,741 158,741 157,740 156,741 155,741 154,740" stroke="#3AAFA9" stroke-width="4" /><polyline fill="none" points="114,739 113,740 112,740 111,741 110,741 109,742 109,743 107,745 107,746 106,747 106,750 105,751 105,758 106,759 106,762 107,763 107,764 112,769 114,769 115,770 123,770 124,769 126,769 130,765 130,764 131,763 132,763 131,763 130,762 129,762 128,761 129,760 128,761 127,761 124,764 123,764 122,765 116,765 112,761 112,759 111,758 111,757 112,756 131,756 131,752 132,751 131,751 130,750 130,746 129,745 129,744 125,740 124,740 123,739" stroke="#3AAFA9" stroke-width="4" /><polyline fill="none" points="141,738 140,739 137,739 136,740 136,769 137,769 138,770 139,769 140,770 141,770 142,771 141,772 142,771 143,771 142,770 142,769 143,768 142,767 142,753 143,752 142,751 143,750 143,749 147,745 151,745 152,744 152,739 148,739 147,740 146,740 145,741 144,741 143,742 141,740" stroke="#3AAFA9" stroke-width="4" /><polyline fill="none" points="251,736 250,737 251,737" stroke="#3AAFA9" stroke-width="4" /><polyline fill="none" points="139,736 138,737 139,737" stroke="#3AAFA9" stroke-width="4" /><polyline fill="none" points="192,730 191,731 190,731 189,732 188,731 186,733 187,734 187,735 186,736 187,737 187,738 186,739 182,739 181,740 182,741 182,745 183,745 184,744 185,744 186,745 186,748 187,749 187,766 188,767 188,768 189,768 190,769 191,769 192,770 199,770 200,769 201,769 201,763 199,765 195,765 192,762 192,752 193,751 192,750 192,745 193,744 198,744 199,745 200,744 201,744 201,740 200,739 200,736 200,738 199,739 196,739 195,740 194,740 192,738 193,737 193,735 192,734" stroke="#3AAFA9" stroke-width="4" /><polyline fill="none" points="75,728 74,729 74,768 73,769 72,768 73,769 74,769 75,770 76,769 79,769 80,770 79,771 81,769 82,770 82,771 81,772 83,770 85,770 86,769 87,770 88,770 89,769 94,769 95,768 96,768 97,767 98,767 98,766 100,764 100,763 101,762 101,754 100,753 100,752 97,749 96,749 95,748 98,745 98,744 99,743 99,741 100,740 100,737 99,736 99,735 98,734 98,733 96,731 95,731 94,730 93,730 92,729 89,729 88,728 87,729 80,729 79,728 78,728 77,729 76,729" stroke="#3AAFA9" stroke-width="4" /><polyline fill="none" points="203,702 204,702 205,703 205,702" stroke="#3AAFA9" stroke-width="4" /><polyline fill="none" points="195,678 196,679 197,679 197,678 196,679" stroke="#3AAFA9" stroke-width="4" /><polyline fill="none" points="266,677 265,678 264,678 265,678" stroke="#3AAFA9" stroke-width="4" /><polyline fill="none" points="87,677 87,678 86,679 87,678" stroke="#3AAFA9" stroke-width="4" /><polyline fill="none" points="213,670 213,700 216,700 217,701 219,699 219,696 218,695 219,694 218,693 218,688 219,687 219,685 218,684 219,683 219,680 218,679 219,678 218,677 218,674 219,673 219,672 220,671 221,671 220,671 219,672 218,671 218,670" stroke="#3AAFA9" stroke-width="4" /><polyline fill="none" points="324,669 323,670 319,670 318,671 317,671 314,674 314,675 312,677 312,679 311,680 311,684 310,685 310,686 311,687 311,691 312,692 312,693 313,694 313,696 312,697 313,696 315,698 314,699 315,698 316,699 317,699 318,700 320,700 321,701 328,701 329,700 330,700 331,699 332,699 336,695 336,693 335,693 334,692 332,692 329,695 328,695 327,696 322,696 321,695 320,695 319,694 319,693 317,691 317,689 316,688 318,686 322,686 323,687 324,686 325,687 326,687 327,686 328,687 329,687 330,686 331,686 332,687 333,687 334,686 337,686 337,685 336,684 336,679 335,678 335,676 334,675 334,674 331,671 329,671 328,670 326,670 325,669" stroke="#3AAFA9" stroke-width="4" /><polyline fill="none" points="263,669 262,670 259,670 258,671 257,671 253,675 253,676 252,677 252,678 251,679 251,680 250,681 250,689 249,690 250,689 251,690 251,693 253,695 253,696 256,699 257,699 258,700 261,700 262,701 266,701 267,700 269,700 270,699 271,699 275,695 275,694 276,693 276,691 275,690 271,690 271,691 267,695 265,695 264,696 263,696 262,695 260,695 257,692 257,690 256,689 256,681 257,680 257,679 261,675 262,675 263,674 264,674 265,675 267,675 270,678 270,680 276,680 276,677 275,676 275,675 271,671 269,671 268,670 265,670 264,669" stroke="#3AAFA9" stroke-width="4" /><polyline fill="none" points="236,669 235,670 230,670 229,671 228,671 227,672 227,673 225,675 225,679 224,680 225,681 225,682 224,683 225,682 228,685 229,685 230,686 231,686 232,687 234,687 235,688 237,688 239,690 238,691 239,690 240,691 240,694 238,696 233,696 232,695 231,695 229,693 229,692 228,692 227,691 224,694 224,696 226,698 225,699 224,699 225,699 226,698 227,699 228,699 229,700 232,700 233,701 231,703 230,702 227,702 226,701 225,701 226,701 227,702 228,702 229,703 230,702 231,703 232,702 233,703 232,702 233,701 238,701 239,700 241,700 242,699 243,699 245,697 245,696 246,695 246,688 242,684 240,684 239,683 237,683 236,682 234,682 233,681 232,681 231,680 231,679 230,678 230,677 232,675 233,675 234,674 238,674 241,677 241,678 244,678 246,676 246,675 242,671 241,671 240,670 238,670 237,669" stroke="#3AAFA9" stroke-width="4" /><polyline fill="none" points="178,669 177,670 175,670 174,671 173,671 172,672 172,673 171,674 170,673 170,671 169,670 164,670 164,687 165,688 165,689 164,690 164,695 165,696 165,697 164,698 164,700 168,700 169,701 170,700 170,698 171,697 171,696 170,695 170,694 171,693 170,692 170,682 171,681 171,679 175,675 179,675 180,676 179,677 178,677 179,678 179,677 180,676 181,677 181,678 182,679 182,701 183,701 184,700 188,700 188,699 187,698 187,697 188,696 188,688 187,687 187,684 188,683 188,679 192,675 197,675 199,677 199,679 200,680 200,688 199,689 200,690 200,694 199,695 199,697 200,698 199,699 201,701 201,702 201,701 202,700 205,700 205,676 204,675 204,674 203,673 203,672 202,671 201,671 200,670 199,670 198,669 195,669 194,670 192,670 191,671 190,671 187,674 183,670 181,670 180,669" stroke="#3AAFA9" stroke-width="4" /><polyline fill="none" points="147,669 146,670 142,670 141,671 140,671 137,674 137,675 135,677 134,676 133,677 133,678 132,679 132,680 133,679 134,680 134,683 133,684 133,687 134,688 134,692 135,693 135,695 139,699 140,699 141,700 143,700 144,701 150,701 151,700 153,700 155,698 156,698 158,696 158,695 159,694 157,692 156,692 154,690 155,689 153,691 154,692 151,695 150,695 149,696 146,696 145,695 144,695 142,693 143,692 142,693 140,691 140,689 139,688 141,686 142,687 154,687 155,686 157,686 159,688 158,687 159,686 159,679 158,678 158,677 157,676 157,675 152,670 149,670 148,669" stroke="#3AAFA9" stroke-width="4" /><polyline fill="none" points="99,669 98,670 95,670 94,671 93,671 90,674 90,675 89,676 89,680 90,681 90,683 92,685 93,685 94,686 95,686 97,688 101,688 105,692 105,693 102,696 97,696 96,695 95,695 94,694 94,693 93,692 93,691 92,691 91,692 90,691 91,692 90,693 89,693 88,694 86,694 88,694 89,695 89,697 90,697 93,700 95,700 96,701 102,701 103,700 105,700 106,699 107,699 110,696 110,693 111,692 110,691 110,688 107,685 106,685 105,684 104,684 103,683 101,683 100,682 98,682 95,679 95,676 96,675 98,675 99,674 102,674 105,677 105,678 108,678 109,677 112,677 113,678 113,677 112,677 108,673 108,672 107,672 105,670 102,670 101,669" stroke="#3AAFA9" stroke-width="4" /><polyline fill="none" points="82,665 81,666 83,668 83,669 82,670 81,670 81,672 80,673 80,676 79,677 79,678 78,679 78,682 77,683 77,685 76,686 76,688 74,690 73,689 73,687 72,686 72,684 71,683 71,681 70,680 70,678 69,677 69,675 68,674 68,672 67,671 67,670 60,670 61,671 61,672 60,673 61,672 62,673 62,675 61,676 62,675 63,676 63,678 64,679 64,680 65,681 65,683 66,684 66,686 67,687 67,688 68,689 68,691 67,692 66,691 67,692 67,693 67,692 68,691 69,692 69,694 68,695 69,694 70,695 70,697 71,698 71,702 70,703 69,702 70,703 69,704 66,704 65,705 63,705 64,706 63,707 63,710 64,711 70,711 71,710 72,710 74,708 74,707 75,706 75,705 76,704 76,703 77,702 77,700 78,699 78,697 79,696 79,694 80,693 80,690 81,689 81,687 82,686 82,684 83,683 83,681 84,680 84,678 85,677 85,675 86,674 86,673 87,672 87,670 84,667 84,666 85,665 84,666 84,667 83,668 81,666" stroke="#3AAFA9" stroke-width="4" /><polyline fill="none" points="122,661 121,662 118,662 117,663 117,669 116,670 112,670 113,671 112,672 112,674 113,675 116,675 117,676 117,693 118,694 118,696 119,697 119,698 121,700 123,700 124,701 129,701 130,700 131,700 132,699 132,698 131,697 131,696 132,695 125,695 123,693 123,676 124,675 130,675 131,676 130,677 128,677 128,678 129,677 130,677 131,676 131,670 124,670 123,669 123,662" stroke="#3AAFA9" stroke-width="4" /><polyline fill="none" points="282,658 282,695 281,696 282,697 282,699 281,700 287,700 287,681 288,680 288,679 289,678 289,677 290,676 291,676 292,675 297,675 298,676 297,677 298,676 299,677 299,678 300,679 300,696 299,697 298,697 297,696 298,697 299,697 300,698 300,700 305,700 305,675 304,674 304,673 302,671 301,671 300,670 297,670 296,669 295,669 294,670 292,670 291,671 290,671 288,673 287,672 287,668 288,667 287,666 287,658" stroke="#3AAFA9" stroke-width="4" /><polyline fill="none" points="215,658 214,659 213,659 213,660 212,661 212,663 215,666 216,665 218,665 219,664 219,660 217,658" stroke="#3AAFA9" stroke-width="4" /><polyline fill="none" points="44,658 43,659 40,659 39,660 38,660 37,661 36,661 35,662 35,663 33,665 33,669 32,670 32,672 33,673 33,675 38,680 40,680 41,681 43,681 44,682 46,682 47,683 49,683 53,687 53,692 50,695 42,695 41,694 40,694 37,691 37,690 35,688 35,689 34,690 33,690 32,691 31,691 31,693 33,695 33,696 35,698 36,698 37,699 38,699 39,700 43,700 44,701 48,701 49,700 52,700 53,699 54,699 58,695 58,694 59,693 59,686 58,685 58,683 54,679 53,679 52,678 51,678 50,677 48,677 47,676 45,676 44,675 43,675 42,674 41,674 39,672 39,671 38,670 38,668 39,667 39,666 41,664 49,664 51,666 50,667 50,669 50,667 51,666 53,668 53,671 54,671 53,670 54,669 57,669 58,670 57,669 58,668 59,668 58,667 58,665 56,663 56,662 55,661 54,661 53,660 52,660 51,659 48,659 47,658" stroke="#3AAFA9" stroke-width="4" /><polyline fill="none" points="85,440 84,441 81,441 80,442 79,442 76,445 76,446 75,447 75,450 77,452 78,452 79,453 81,453 82,452 83,452 84,451 85,451 86,450 86,449 88,447 88,441 87,440" stroke="#3AAFA9" stroke-width="4" /><polyline fill="none" points="40,439 39,440 37,440 36,441 34,441 33,442 31,442 29,444 28,444 26,446 25,446 23,448 23,449 19,453 19,454 18,455 18,456 17,457 17,458 16,459 16,461 15,462 15,465 14,466 14,478 15,479 15,480 16,481 16,482 17,483 17,485 19,487 19,488 20,489 20,490 26,496 27,496 28,497 29,497 30,498 31,498 32,499 35,499 36,500 50,500 51,499 53,499 54,498 55,498 56,497 57,497 58,496 59,496 67,488 67,487 69,485 69,484 70,483 70,482 71,481 71,478 72,477 72,472 73,471 72,470 72,462 71,461 71,459 70,458 70,456 68,454 68,453 66,451 66,450 61,445 60,445 58,443 57,443 56,442 55,442 54,441 55,440 54,441 52,441 51,440 48,440 47,439" stroke="#3AAFA9" stroke-width="4" /><polyline fill="none" points="103,426 102,427 101,427 97,431 97,432 96,433 96,437 99,440 100,440 101,439 103,439 104,438 105,438 107,436 107,435 109,433 109,432 110,431 110,430 109,429 109,427 108,426" stroke="#3AAFA9" stroke-width="4" /><polyline fill="none" points="122,408 121,409 120,409 119,410 118,410 115,413 115,414 113,416 112,416 113,417 113,421 114,422 113,423 115,423 116,424 118,424 119,423 120,423 124,419 124,418 126,416 126,413 127,412 125,410 125,409 123,409" stroke="#3AAFA9" stroke-width="4" /><polyline fill="none" points="129,386 128,387 127,387 125,389 125,390 124,391 124,398 126,400 130,400 131,399 132,399 132,398 134,396 134,388 133,387 132,387 131,386" stroke="#3AAFA9" stroke-width="4" /><polyline fill="none" points="121,361 120,362 119,362 117,364 117,372 118,373 118,375 119,376 119,377 122,380 125,380 127,378 127,377 128,376 128,371 127,370 127,368 126,367 126,366 125,365 125,364 122,361" stroke="#3AAFA9" stroke-width="4" /><polyline fill="none" points="220,292 219,293 214,293 213,294 209,294 208,295 205,295 204,296 201,296 200,297 199,297 198,298 196,298 195,299 194,299 193,300 192,300 191,301 190,301 188,303 187,303 186,304 185,304 183,306 182,306 178,310 177,310 172,315 172,316 170,318 170,319 168,321 168,322 167,323 167,324 166,325 166,326 165,327 165,329 164,330 164,335 163,336 163,339 164,340 164,344 165,345 165,347 167,349 167,350 168,351 168,352 171,355 171,356 172,357 172,369 171,370 171,375 170,376 170,378 169,379 169,381 167,383 167,385 166,386 166,387 165,388 165,389 164,390 164,391 163,392 163,393 162,394 162,395 160,397 160,398 159,399 159,400 157,402 157,403 156,404 156,405 155,406 155,407 153,409 153,411 152,412 152,413 151,414 151,417 150,418 150,422 151,423 151,425 152,425 153,426 155,426 156,427 160,427 161,428 166,428 168,430 168,452 169,453 169,457 170,458 170,460 171,461 171,462 172,463 172,465 178,471 180,471 181,472 182,472 183,473 191,473 192,474 197,474 198,473 207,473 208,474 208,475 208,474 209,473 210,474 210,476 209,477 210,476 211,477 211,484 212,485 212,490 213,491 213,495 214,496 214,499 215,500 215,503 216,504 216,507 217,508 217,511 218,512 217,513 217,514 215,516 215,517 213,519 213,520 210,523 210,524 208,526 208,527 207,528 207,529 205,531 205,532 203,534 203,535 202,536 202,537 200,539 200,540 199,541 199,542 197,544 197,546 195,548 195,549 194,550 194,551 193,552 193,553 192,554 192,555 191,556 191,558 190,559 190,560 189,561 189,562 188,563 188,564 187,565 187,567 186,568 186,569 185,570 185,572 184,573 184,574 183,575 183,577 182,578 181,577 181,576 181,577 182,578 182,585 184,587 187,587 189,585 189,583 190,582 190,581 191,580 191,578 192,577 192,575 193,574 193,573 194,572 194,570 195,569 195,568 196,567 196,566 197,565 197,563 198,562 198,561 199,560 199,559 200,558 200,557 201,556 201,555 202,554 202,553 203,552 203,551 204,550 204,549 205,548 205,547 207,545 207,544 208,543 208,542 210,540 210,539 211,538 211,537 213,535 213,534 214,533 214,532 216,530 216,529 219,526 219,525 226,518 228,518 230,516 231,516 232,515 233,515 234,514 235,514 236,513 237,513 238,512 239,512 240,511 241,511 242,510 244,510 245,509 246,509 247,508 248,508 249,507 251,507 252,506 253,506 254,505 256,505 257,504 258,504 259,503 261,503 262,502 264,502 265,501 267,501 268,500 270,500 271,499 273,499 274,498 276,498 277,497 280,497 281,496 284,496 285,495 287,495 288,496 289,496 291,498 290,499 291,498 292,499 292,500 294,502 294,503 295,504 295,505 297,507 297,508 298,509 298,510 299,511 299,512 301,514 301,515 302,516 302,517 303,518 303,519 304,520 304,521 306,523 306,525 307,526 307,527 308,528 308,529 309,530 309,532 310,533 310,534 311,535 311,537 312,538 312,539 313,540 313,542 314,543 314,544 315,545 315,547 316,548 316,550 317,551 317,554 318,555 318,557 319,558 319,560 320,561 320,563 321,564 321,567 322,568 322,571 323,572 323,575 324,576 324,579 325,580 325,583 326,584 326,585 327,586 327,587 331,587 333,585 333,579 332,578 332,574 331,573 331,571 330,570 330,566 329,565 329,562 328,561 328,559 327,558 327,555 326,554 326,552 325,551 325,549 324,548 324,546 323,545 323,543 322,542 322,541 321,540 321,538 320,537 320,535 319,534 319,533 318,532 318,530 317,529 317,528 316,527 316,526 315,525 315,524 314,523 314,522 313,521 313,519 312,518 312,517 311,516 311,515 310,514 310,513 309,512 309,511 308,510 308,509 306,507 306,506 305,505 305,504 303,502 303,501 302,500 302,499 299,496 299,495 298,494 298,493 297,492 297,491 295,489 295,488 294,487 294,486 293,485 293,484 292,483 292,479 291,478 291,474 290,473 290,465 289,464 289,456 288,455 288,439 290,437 290,436 295,431 295,430 297,428 297,427 299,425 299,424 301,422 301,421 302,420 302,419 303,418 303,417 305,415 305,413 306,412 306,411 307,410 307,409 308,408 308,407 309,406 309,404 310,403 310,401 311,400 311,398 312,397 312,394 313,393 313,389 314,388 314,385 315,384 314,383 315,382 315,359 314,358 314,353 313,352 313,349 312,348 312,345 311,344 311,342 310,341 310,340 309,339 309,337 307,335 307,333 305,331 305,330 304,329 304,328 302,326 302,325 299,322 299,321 286,308 285,308 283,306 282,306 280,304 279,304 278,303 277,303 276,302 275,302 273,300 271,300 270,299 269,299 268,298 267,298 266,297 264,297 263,296 261,296 260,295 257,295 256,294 253,294 252,293 247,293 246,292" stroke="#3AAFA9" stroke-width="4" /><polyline fill="none" points="164,212 163,213 159,213 158,214 156,214 155,215 154,215 151,218 150,218 145,223 145,224 143,226 143,227 142,228 142,229 141,230 141,231 140,232 140,234 139,235 139,250 140,251 140,254 141,255 139,257 138,256 139,257 132,264 131,264 125,270 124,270 119,275 118,275 113,280 112,280 108,284 107,284 106,285 105,285 104,284 103,284 102,283 100,283 99,282 98,282 97,281 91,281 90,280 87,280 86,281 82,281 81,280 82,281 81,282 79,282 78,283 77,283 75,285 74,285 66,293 66,294 65,295 65,296 64,297 64,298 63,299 63,301 62,302 62,305 61,306 61,317 60,318 61,317 62,318 62,321 63,322 63,324 64,325 64,326 65,327 65,328 66,329 66,330 65,331 66,330 69,333 68,334 69,333 72,336 73,336 75,338 76,338 77,339 78,339 79,340 81,340 82,341 84,341 85,342 93,342 94,341 98,341 99,340 100,340 101,339 103,339 104,340 104,341 105,342 105,343 106,344 106,345 107,346 107,348 108,349 108,350 109,351 109,352 110,353 110,354 111,354 112,355 114,355 116,353 116,352 117,351 117,348 116,347 116,345 115,344 115,343 114,342 114,341 113,340 113,339 112,338 112,337 111,336 111,335 110,334 114,330 114,329 115,328 115,327 117,325 117,323 118,322 118,320 119,319 119,305 118,304 118,302 117,301 117,299 116,298 116,297 115,296 115,295 113,293 113,291 116,288 117,288 119,286 120,287 119,286 122,283 123,283 128,278 129,278 135,272 136,272 143,265 144,265 146,263 147,264 147,265 148,266 149,266 152,269 153,269 154,270 155,270 156,271 158,271 159,272 161,272 162,273 175,273 176,272 178,272 179,271 180,271 181,270 182,270 183,269 184,269 186,267 187,267 191,263 191,262 194,259 194,258 195,257 195,256 196,255 196,253 197,252 197,250 198,249 198,237 197,236 197,233 196,232 196,230 195,229 195,228 194,227 194,226 192,224 192,223 187,218 186,218 184,216 183,216 182,215 181,215 180,214 178,214 177,213 174,213 173,212" stroke="#3AAFA9" stroke-width="4" /></svg>